<?xml version="1.0" encoding="UTF-8" standalone="no"?>
<!-- Created with Inkscape (http://www.inkscape.org/) -->

<svg
   xmlns:dc="http://purl.org/dc/elements/1.1/"
   xmlns:cc="http://creativecommons.org/ns#"
   xmlns:rdf="http://www.w3.org/1999/02/22-rdf-syntax-ns#"
   xmlns:svg="http://www.w3.org/2000/svg"
   xmlns="http://www.w3.org/2000/svg"
   xmlns:sodipodi="http://sodipodi.sourceforge.net/DTD/sodipodi-0.dtd"
   xmlns:inkscape="http://www.inkscape.org/namespaces/inkscape"
   width="100"
   height="10"
   viewBox="0 0 99.999997 9.9999998"
   id="svg6115"
   version="1.1"
   inkscape:version="0.91 r13725"
   sodipodi:docname="sprite.svg">
  <defs
     id="defs6117" />
  <sodipodi:namedview
     id="base"
     pagecolor="#ffffff"
     bordercolor="#666666"
     borderopacity="1.0"
     inkscape:pageopacity="0.0"
     inkscape:pageshadow="2"
     inkscape:zoom="26.269504"
     inkscape:cx="7.6570686"
     inkscape:cy="3.8493559"
     inkscape:document-units="px"
     inkscape:current-layer="layer1"
     showgrid="true"
     units="px"
     inkscape:window-width="1440"
     inkscape:window-height="798"
     inkscape:window-x="246"
     inkscape:window-y="108"
     inkscape:window-maximized="0">
    <inkscape:grid
       type="xygrid"
       id="grid6681"
       spacingx="0.99999997"
       spacingy="0.99999998"
       empcolor="#00008f"
       empopacity="0.45882353" />
  </sodipodi:namedview>
  <metadata
     id="metadata6120">
    <rdf:RDF>
      <cc:Work
         rdf:about="">
        <dc:format>image/svg+xml</dc:format>
        <dc:type
           rdf:resource="http://purl.org/dc/dcmitype/StillImage" />
        <dc:title></dc:title>
      </cc:Work>
    </rdf:RDF>
  </metadata>
  <g
     inkscape:label="Layer 1"
     inkscape:groupmode="layer"
     id="layer1"
     transform="translate(0,-1042.3622)">
    <path
       style="color:#000000;font-style:normal;font-variant:normal;font-weight:normal;font-stretch:normal;font-size:medium;line-height:normal;font-family:sans-serif;text-indent:0;text-align:start;text-decoration:none;text-decoration-line:none;text-decoration-style:solid;text-decoration-color:#000000;letter-spacing:normal;word-spacing:normal;text-transform:none;direction:ltr;block-progression:tb;writing-mode:lr-tb;baseline-shift:baseline;text-anchor:start;white-space:normal;clip-rule:nonzero;display:inline;overflow:visible;visibility:visible;opacity:1;isolation:auto;mix-blend-mode:normal;color-interpolation:sRGB;color-interpolation-filters:linearRGB;solid-color:#000000;solid-opacity:1;fill:#51c7d7;fill-opacity:1;fill-rule:nonzero;stroke:none;stroke-width:4.7058773;stroke-linecap:round;stroke-linejoin:round;stroke-miterlimit:4;stroke-dasharray:none;stroke-dashoffset:0;stroke-opacity:1;color-rendering:auto;image-rendering:auto;shape-rendering:auto;text-rendering:auto;enable-background:accumulate"
       d="m 5,1043.3702 c -2.206351,0 -4,1.7936 -4,4 0,1.9576 1.412413,3.5891 3.271875,3.9324 l 0,-0.4785 c -0.892107,-0.1866 -1.659059,-0.7091 -2.163867,-1.4297 l 0.382813,0 a 0.68915392,0.68915392 0 0 1 0.210937,-0.4215 l 0.05,-0.049 -0.92207,0 c -0.197066,-0.4021 -0.319634,-0.8472 -0.350586,-1.318 l 1.652539,0 c 0.01365,0.2822 0.05094,0.5627 0.109961,0.8383 l 0.406445,-0.398 c -0.02195,-0.1461 -0.03776,-0.2929 -0.0457,-0.4403 l 0.495313,0 0.480664,-0.4707 -0.976563,0 c 0.02361,-0.4807 0.123336,-0.9577 0.288282,-1.4117 l 2.268359,0 c 0.16463,0.454 0.263957,0.931 0.2875,1.4117 l -0.979492,0 0.470898,0.4707 0.508008,0 c -0.0083,0.1539 -0.02498,0.3072 -0.04844,0.4596 l 0.403907,0.4037 c 0.06207,-0.2837 0.1014,-0.5725 0.115429,-0.8633 l 1.604688,0 c -0.03095,0.4708 -0.15352,0.9159 -0.350586,1.318 l -0.914844,0 0.0916,0.092 a 0.68915392,0.68915392 0 0 1 0.198437,0.3789 l 0.346485,0 c -0.496475,0.7087 -1.2468,1.225 -2.120118,1.4193 l 0,0.4811 c 1.837884,-0.3606 3.228125,-1.9823 3.228125,-3.9246 0,-2.2064 -1.793648,-4 -4,-4 z m -0.57832,0.5183 c -0.351062,0.4089 -0.638763,0.8704 -0.85293,1.3645 l -1.394531,0 c 0.533742,-0.7118 1.330738,-1.2138 2.247461,-1.3645 z m 1.214844,0.01 c 0.892188,0.162 1.666859,0.6575 2.189258,1.3541 l -1.345899,0 c -0.212036,-0.4899 -0.496479,-0.9478 -0.843359,-1.3541 z m -0.611719,0.029 c 0.38351,0.3832 0.698676,0.8347 0.935352,1.3246 l -1.871485,0 c 0.237042,-0.4899 0.552547,-0.9414 0.936133,-1.3246 z m -3.147851,1.7951 1.512109,0 c -0.149188,0.4559 -0.236848,0.9315 -0.258008,1.4117 l -1.651953,0 c 0.03325,-0.5076 0.173045,-0.9855 0.397852,-1.4117 z m 4.782226,0 1.463867,0 c 0.224807,0.4262 0.364605,0.9041 0.397852,1.4117 l -1.604102,0 c -0.0211,-0.4802 -0.108707,-0.9558 -0.257617,-1.4117 z m -2.387305,3.6406 -0.03086,0.03 0.03086,0 0,-0.03 z m 1.5,0.025 0,0 0.0049,0 -0.0049,0 z m -1.656835,0.1283 -0.35254,0.3452 c 0.146773,0.2748 0.317047,0.537 0.509375,0.7824 l 0,-0.8362 c -0.05555,-0.095 -0.107644,-0.1926 -0.156835,-0.2914 z m 1.807812,0.023 c -0.04744,0.094 -0.09772,0.1869 -0.150977,0.2779 l 0,0.8342 c 0.188323,-0.2395 0.355369,-0.4953 0.500196,-0.7631 l -0.349219,-0.349 z"
       id="circle4221"
       inkscape:connector-curvature="0" />
    <g
       style="fill:none;stroke:#000000;stroke-width:0.5"
       id="g4223"
       transform="matrix(9.4117669,0,0,9.4117419,-279.41183,-8855.416)" />
    <g
       id="g6764"
       transform="matrix(0.1,0,0,0.1,0,948.42598)">
      <path
         inkscape:connector-curvature="0"
         id="path4255"
         d="m 50.219136,992.3912 0,46.971"
         style="fill:none;stroke:#000000;stroke-width:5"
         sodipodi:nodetypes="cc" />
      <path
         d="m 31.839136,1010.3912 18.38,-18 18.38,18.377"
         id="path4257"
         inkscape:connector-curvature="0"
         style="fill:none;stroke:#000000;stroke-width:4.5939002" />
    </g>
    <circle
       transform="matrix(0.70710438,-0.70710919,0.70710438,0.70710919,0,0)"
       cy="750.13568"
       cx="-729.98535"
       r="2.9999907"
       id="circle4701"
       style="fill:none;stroke:#000000;stroke-width:0.49999842;stroke-linecap:round;stroke-linejoin:round" />
    <path
       d="m 16.29675,1048.6786 1.99999,2"
       id="path4703"
       inkscape:connector-curvature="0"
       style="fill:none;stroke:#000000;stroke-width:0.99999684px" />
    <path
       d="m 16.10675,1046.3807 a 2.1174862,2.1175006 0 0 1 -1.94238,2.1007"
       id="path4705"
       inkscape:connector-curvature="0"
       style="fill:none;stroke:#51c7d7;stroke-width:0.49999842;stroke-linecap:round;stroke-linejoin:round;stroke-opacity:1" />
    <path
       d="m 12.48678,1046.8067 a 2.1174862,2.1175006 0 0 1 1.94239,-2.1007"
       id="path4707"
       inkscape:connector-curvature="0"
       style="fill:none;stroke:#ffffff;stroke-width:0.49999842;stroke-linecap:round;stroke-linejoin:round" />
    <circle
       cy="1047.4122"
       cx="25"
       r="3"
       id="circle4645"
       style="fill:none;stroke:#000000;stroke-width:0.5;stroke-linecap:round;stroke-linejoin:round" />
    <rect
       height="2"
       width="2"
       y="1050.1122"
       x="24"
       id="rect4647"
       style="fill:#51c7d7;stroke:#000000;stroke-width:0.5;stroke-linecap:butt;stroke-linejoin:miter;fill-opacity:1"
       ry="0" />
    <path
       style="fill:none;stroke:#000000;stroke-width:0.5"
       d="m 20,1047.4122 1,0"
       id="path4651"
       inkscape:connector-curvature="0" />
    <path
       style="fill:none;stroke:#000000;stroke-width:0.5"
       d="m 29,1047.4122 1,0"
       id="path4653"
       inkscape:connector-curvature="0" />
    <path
       style="fill:none;stroke:#000000;stroke-width:0.5"
       d="m 20.67,1049.9122 0.86603,-0.5"
       id="path4655"
       inkscape:connector-curvature="0" />
    <path
       style="fill:none;stroke:#000000;stroke-width:0.5"
       d="m 28.46,1045.4122 0.86603,-0.5"
       id="path4657"
       inkscape:connector-curvature="0" />
    <path
       style="fill:none;stroke:#000000;stroke-width:0.5"
       d="m 22.5,1051.7122 0.5,-0.866"
       id="path4659"
       inkscape:connector-curvature="0" />
    <path
       style="fill:none;stroke:#000000;stroke-width:0.5"
       d="m 27,1043.9122 0.5,-0.866"
       id="path4661"
       inkscape:connector-curvature="0" />
    <path
       style="fill:none;stroke:#000000;stroke-width:0.5"
       d="m 25,1043.4122 10e-6,-1"
       id="path4663"
       inkscape:connector-curvature="0" />
    <path
       style="fill:none;stroke:#000000;stroke-width:0.5"
       d="m 27.5,1051.7122 -0.5,-0.8"
       id="path4665"
       inkscape:connector-curvature="0" />
    <path
       style="fill:none;stroke:#000000;stroke-width:0.5"
       d="m 23,1043.9122 -0.49999,-0.866"
       id="path4667"
       inkscape:connector-curvature="0" />
    <path
       style="fill:none;stroke:#000000;stroke-width:0.5"
       d="m 29.33,1049.9122 -0.866,-0.5"
       id="path4669"
       inkscape:connector-curvature="0" />
    <path
       style="fill:none;stroke:#000000;stroke-width:0.5"
       d="m 21.54,1045.4122 -0.866,-0.5"
       id="path4671"
       inkscape:connector-curvature="0" />
    <path
       style="fill:none;stroke:#000000;stroke-width:0.61832225;stroke-linecap:round;stroke-linejoin:round"
       id="circle10167"
       transform="matrix(0.70412608,-0.71007497,0.70412608,0.71007497,0,0)"
       sodipodi:type="arc"
       sodipodi:cx="-733.99963"
       sodipodi:cy="741.03754"
       sodipodi:rx="3.7099335"
       sodipodi:ry="3.7099335"
       sodipodi:start="2.602398"
       sodipodi:end="2.0543624"
       sodipodi:open="true"
       d="m -737.18321,742.94238 a 3.7099335,3.7099335 0 0 1 0.86176,-4.79842 3.7099335,3.7099335 0 0 1 4.87116,0.19832 3.7099335,3.7099335 0 0 1 0.46885,4.85259 3.7099335,3.7099335 0 0 1 -4.74309,1.12723" />
  </g>
</svg>
